<mxfile host="app.diagrams.net" modified="2024-03-20T21:18:18.581Z" agent="Mozilla/5.0 (Windows NT 10.0; Win64; x64) AppleWebKit/537.36 (KHTML, like Gecko) Chrome/122.0.0.0 Safari/537.36" version="24.0.7" etag="j8OIz8BxEv5CUkQyN1zm" type="github">
  <diagram name="PÃ¡gina-1" id="20x0BPYKDViFjdO0_ZcW">
    <mxGraphModel>
      <root>
        <mxCell id="0" />
        <mxCell id="1" parent="0" />
      </root>
    </mxGraphModel>
  </diagram>
</mxfile>
